<svg xmlns="http://www.w3.org/2000/svg" version="1.1" xmlns:xlink="http://www.w3.org/1999/xlink" xmlns:svgjs="http://svgjs.dev/svgjs" width="1000" height="1000"><g clip-path="url(#SvgjsClipPath1318)"><rect width="1000" height="1000" fill="#000000"></rect><g transform="matrix(5.343511450381679,0,0,5.343511450381679,240.83969465648858,150)"><svg xmlns="http://www.w3.org/2000/svg" version="1.1" xmlns:xlink="http://www.w3.org/1999/xlink" xmlns:svgjs="http://svgjs.dev/svgjs" width="97" height="131"><svg xmlns="http://www.w3.org/2000/svg" width="97" height="131" fill="none"><path fill="#fff" fill-rule="evenodd" d="M57.532 11.543a27.668 27.668 0 0 1 19.593 8.14A27.867 27.867 0 0 1 85.25 39.36v65.631a13.79 13.79 0 0 1-1.044 5.264 13.75 13.75 0 0 1-2.97 4.458 13.672 13.672 0 0 1-4.437 2.973 13.624 13.624 0 0 1-5.228 1.043H25.229a13.656 13.656 0 0 1-9.666-4.016 13.748 13.748 0 0 1-2.97-4.458 13.788 13.788 0 0 1-1.043-5.264V25.281c0-1.807.355-3.595 1.044-5.264a13.741 13.741 0 0 1 2.97-4.457A13.674 13.674 0 0 1 20 12.586a13.628 13.628 0 0 1 5.228-1.043h32.303Zm27.774-.008A39.222 39.222 0 0 0 57.532 0H25.23c-3.316 0-6.599.655-9.661 1.927a25.225 25.225 0 0 0-8.186 5.485 25.285 25.285 0 0 0-5.464 8.2A25.327 25.327 0 0 0 0 25.283v79.708a25.298 25.298 0 0 0 7.382 17.87 25.23 25.23 0 0 0 8.186 5.484 25.169 25.169 0 0 0 9.661 1.928h46.342c3.316 0 6.599-.655 9.66-1.928a25.231 25.231 0 0 0 8.186-5.484 25.298 25.298 0 0 0 7.383-17.87V39.36a39.406 39.406 0 0 0-11.494-27.825Z" clip-rule="evenodd"></path><path fill="#fff" d="M63.68 43.783 35.558 27.537a2.436 2.436 0 0 0-3.66 2.111v32.498a2.442 2.442 0 0 0 2.44 2.44c.429 0 .85-.114 1.22-.328l28.12-16.247a2.439 2.439 0 0 0 0-4.228ZM48.407 85.999c4.954 0 9.864-.037 14.79.024 1.348 0 1.739-.27 1.7-1.275-.099-2.462-.071-4.923 0-7.364 0-.849-.115-1.259-1.508-1.255-10.002.05-20.001.05-29.997 0-1.172 0-1.513.242-1.491 1.116.077 2.557.077 5.114 0 7.67 0 .899.385 1.104 1.513 1.092 4.993-.041 9.99-.008 14.993-.008ZM48.407 103.588c4.954 0 9.864-.037 14.79.025 1.348 0 1.739-.271 1.7-1.276-.099-2.461-.071-4.923 0-7.363 0-.85-.115-1.26-1.508-1.255-10.002.049-20.001.049-29.997 0-1.172 0-1.513.242-1.491 1.115.077 2.557.077 5.114 0 7.671 0 .898.385 1.103 1.513 1.091 4.993-.041 9.99-.008 14.993-.008Z"></path></svg></svg></g></g><defs><clipPath id="SvgjsClipPath1318"><rect width="1000" height="1000" x="0" y="0" rx="500" ry="500"></rect></clipPath></defs></svg>