<?xml version="1.0" standalone="no"?>
<!DOCTYPE svg PUBLIC "-//W3C//DTD SVG 20010904//EN"
 "http://www.w3.org/TR/2001/REC-SVG-20010904/DTD/svg10.dtd">
<svg version="1.0" xmlns="http://www.w3.org/2000/svg"
 width="700.000000pt" height="700.000000pt" viewBox="0 0 700.000000 700.000000"
 preserveAspectRatio="xMidYMid meet">
<metadata>
Created by potrace 1.14, written by Peter Selinger 2001-2017
</metadata>
<g transform="translate(0.000000,700.000000) scale(0.100000,-0.100000)"
fill="#000000" stroke="none">
<path d="M3307 6994 c-1 -1 -47 -4 -102 -7 -55 -4 -111 -8 -125 -11 -14 -3
-43 -7 -65 -11 -95 -14 -112 -17 -150 -25 -22 -5 -56 -12 -75 -15 -60 -10
-260 -64 -360 -97 -298 -97 -620 -251 -860 -411 -72 -48 -253 -180 -276 -202
-6 -5 -44 -39 -85 -75 -146 -129 -379 -374 -480 -505 -142 -185 -257 -372
-369 -600 -116 -237 -199 -462 -255 -692 -29 -116 -29 -118 -46 -208 -6 -33
-12 -64 -13 -70 -2 -5 -6 -32 -10 -60 -4 -27 -10 -61 -12 -75 -17 -112 -24
-587 -11 -734 39 -420 157 -846 338 -1222 29 -60 72 -142 96 -182 24 -41 43
-76 43 -78 0 -3 42 -67 92 -142 199 -295 412 -532 704 -782 61 -53 282 -211
356 -255 134 -80 193 -113 305 -169 72 -36 134 -66 137 -66 3 0 29 -11 58 -24
226 -102 603 -207 873 -242 22 -3 51 -7 65 -10 148 -24 712 -23 845 2 10 2 37
6 60 9 65 10 97 15 155 26 84 16 102 19 145 30 22 5 51 12 65 15 93 19 362
108 510 169 528 218 1061 630 1415 1095 28 36 53 67 58 68 4 2 7 10 7 17 0 7
4 15 8 17 10 4 124 178 180 273 71 124 168 326 225 470 47 117 128 365 142
432 2 10 9 41 15 68 21 92 56 284 64 355 20 175 27 566 13 729 -7 88 -32 262
-48 346 -6 28 -13 61 -15 75 -13 68 -66 266 -94 355 -107 334 -305 723 -502
985 -190 254 -483 551 -713 726 -80 61 -292 204 -302 204 -3 0 -18 9 -33 20
-34 25 -336 178 -400 204 -25 10 -58 24 -75 31 -155 69 -543 180 -700 201 -22
3 -46 7 -53 10 -8 2 -37 7 -65 10 -29 2 -61 7 -72 9 -39 8 -600 25 -608 19z
m448 -2089 c114 -198 221 -385 238 -415 16 -30 39 -71 50 -90 11 -19 33 -57
49 -85 16 -27 33 -57 38 -65 11 -16 133 -230 183 -320 47 -85 49 -88 322 -565
142 -247 271 -475 288 -505 16 -30 38 -67 49 -82 10 -14 18 -28 18 -31 0 -2
61 -111 136 -242 74 -131 133 -240 129 -243 -7 -7 -3434 -7 -3441 1 -5 5 95
192 167 312 10 17 26 46 37 65 10 19 110 195 222 390 111 195 212 371 223 390
50 88 393 688 567 990 105 184 202 353 214 375 29 51 201 350 251 433 20 35
41 60 45 55 5 -4 102 -170 215 -368z"/>
</g>
</svg>
